HIERARCHY
ROOT Root
{
  OFFSET 0.0 0.0 0.0
  CHANNELS 6 Xposition Yposition Zposition Zrotation Yrotation Xrotation
  JOINT Hips
  {
    OFFSET 0.0 100.0 0.0
    CHANNELS 6 Xposition Yposition Zposition Zrotation Yrotation Xrotation
    JOINT Spine1
    {
      OFFSET 5.003913 -0.037094 -0.013727
      CHANNELS 3 Zrotation Yrotation Xrotation
      JOINT Spine2
      {
        OFFSET 7.125363 -1e-06 0.0
        CHANNELS 3 Zrotation Yrotation Xrotation
        JOINT Chest
        {
          OFFSET 7.594027 1e-06 0.0
          CHANNELS 3 Zrotation Yrotation Xrotation
          JOINT Neck1
          {
            OFFSET 26.313086 -0.460272 -0.181672
            CHANNELS 3 Zrotation Yrotation Xrotation
            JOINT Neck2
            {
              OFFSET 8.045911 0.0 0.0
              CHANNELS 3 Zrotation Yrotation Xrotation
              JOINT Head
              {
                OFFSET 6.432774 0.0 0.0
                CHANNELS 3 Zrotation Yrotation Xrotation
                JOINT HeadEnd
                {
                  OFFSET 16.169773 0.06451 0.00362
                  CHANNELS 3 Zrotation Yrotation Xrotation
                }
                JOINT Jaw
                {
                  OFFSET 0.108741 3.12938 0.002639
                  CHANNELS 3 Zrotation Yrotation Xrotation
                }
                JOINT LeftEye
                {
                  OFFSET 4.45173 8.166359 3.206392
                  CHANNELS 3 Zrotation Yrotation Xrotation
                }
                JOINT RightEye
                {
                  OFFSET 4.436895 8.135758 -3.222429
                  CHANNELS 3 Zrotation Yrotation Xrotation
                }
              }
            }
          }
          JOINT LeftShoulder
          {
            OFFSET 23.218927 5.195579 1.621656
            CHANNELS 3 Zrotation Yrotation Xrotation
            JOINT LeftArm
            {
              OFFSET 15.902118 2e-06 -2e-06
              CHANNELS 3 Zrotation Yrotation Xrotation
              JOINT LeftForeArm
              {
                OFFSET 28.739307 0.0 -1e-06
                CHANNELS 3 Zrotation Yrotation Xrotation
                JOINT LeftHand
                {
                  OFFSET 27.093981 -4e-06 0.0
                  CHANNELS 3 Zrotation Yrotation Xrotation
                  JOINT LeftHandThumb1
                  {
                    OFFSET 2.276781 3.380274 0.83384
                    CHANNELS 3 Zrotation Yrotation Xrotation
                    JOINT LeftHandThumb2
                    {
                      OFFSET 4.705309 -1e-06 -1e-06
                      CHANNELS 3 Zrotation Yrotation Xrotation
                      JOINT LeftHandThumb3
                      {
                        OFFSET 2.798515 0.0 3e-06
                        CHANNELS 3 Zrotation Yrotation Xrotation
                        JOINT LeftHandThumbEnd
                        {
                          OFFSET 3.180793 4e-06 -4e-06
                          CHANNELS 3 Zrotation Yrotation Xrotation
                        }
                      }
                    }
                  }
                  JOINT LeftHandIndex1
                  {
                    OFFSET 3.247786 2.352677 0.137192
                    CHANNELS 3 Zrotation Yrotation Xrotation
                    JOINT LeftHandIndex2
                    {
                      OFFSET 6.367095 1e-06 0.0
                      CHANNELS 3 Zrotation Yrotation Xrotation
                      JOINT LeftHandIndex3
                      {
                        OFFSET 3.662364 0.0 0.0
                        CHANNELS 3 Zrotation Yrotation Xrotation
                        JOINT LeftHandIndex4
                        {
                          OFFSET 2.329242 4e-06 -4e-06
                          CHANNELS 3 Zrotation Yrotation Xrotation
                          JOINT LeftHandIndexEnd
                          {
                            OFFSET 2.767823 1e-06 0.0
                            CHANNELS 3 Zrotation Yrotation Xrotation
                          }
                        }
                      }
                    }
                  }
                  JOINT LeftHandMiddle1
                  {
                    OFFSET 3.163612 0.945023 -0.406112
                    CHANNELS 3 Zrotation Yrotation Xrotation
                    JOINT LeftHandMiddle2
                    {
                      OFFSET 6.276789 3e-06 0.0
                      CHANNELS 3 Zrotation Yrotation Xrotation
                      JOINT LeftHandMiddle3
                      {
                        OFFSET 4.35652 -1e-06 4e-06
                        CHANNELS 3 Zrotation Yrotation Xrotation
                        JOINT LeftHandMiddle4
                        {
                          OFFSET 2.996877 0.0 8e-06
                          CHANNELS 3 Zrotation Yrotation Xrotation
                          JOINT LeftHandMiddleEnd
                          {
                            OFFSET 2.323256 3e-06 -4e-06
                            CHANNELS 3 Zrotation Yrotation Xrotation
                          }
                        }
                      }
                    }
                  }
                  JOINT LeftHandRing1
                  {
                    OFFSET 2.882606 -0.309162 0.107445
                    CHANNELS 3 Zrotation Yrotation Xrotation
                    JOINT LeftHandRing2
                    {
                      OFFSET 6.033198 0.0 4e-06
                      CHANNELS 3 Zrotation Yrotation Xrotation
                      JOINT LeftHandRing3
                      {
                        OFFSET 4.350578 3e-06 0.0
                        CHANNELS 3 Zrotation Yrotation Xrotation
                        JOINT LeftHandRing4
                        {
                          OFFSET 2.651321 2e-06 -7e-06
                          CHANNELS 3 Zrotation Yrotation Xrotation
                          JOINT LeftHandRingEnd
                          {
                            OFFSET 1.937663 1e-06 -4e-06
                            CHANNELS 3 Zrotation Yrotation Xrotation
                          }
                        }
                      }
                    }
                  }
                  JOINT LeftHandPinky1
                  {
                    OFFSET 2.865315 -1.525436 0.575687
                    CHANNELS 3 Zrotation Yrotation Xrotation
                    JOINT LeftHandPinky2
                    {
                      OFFSET 5.54936 1e-06 -8e-06
                      CHANNELS 3 Zrotation Yrotation Xrotation
                      JOINT LeftHandPinky3
                      {
                        OFFSET 3.070974 0.0 -4e-06
                        CHANNELS 3 Zrotation Yrotation Xrotation
                        JOINT LeftHandPinky4
                        {
                          OFFSET 1.549672 1e-06 0.0
                          CHANNELS 3 Zrotation Yrotation Xrotation
                          JOINT LeftHandPinkyEnd
                          {
                            OFFSET 1.952123 0.0 0.0
                            CHANNELS 3 Zrotation Yrotation Xrotation
                          }
                        }
                      }
                    }
                  }
                }
              }
            }
          }
          JOINT RightShoulder
          {
            OFFSET 23.161716 5.296122 -1.380114
            CHANNELS 3 Zrotation Yrotation Xrotation
            JOINT RightArm
            {
              OFFSET -16.027195 -2e-06 1.1e-05
              CHANNELS 3 Zrotation Yrotation Xrotation
              JOINT RightForeArm
              {
                OFFSET -28.736639 4e-06 2e-06
                CHANNELS 3 Zrotation Yrotation Xrotation
                JOINT RightHand
                {
                  OFFSET -27.133619 6e-06 0.0
                  CHANNELS 3 Zrotation Yrotation Xrotation
                  JOINT RightHandThumb1
                  {
                    OFFSET -2.274328 -3.351035 -0.83067
                    CHANNELS 3 Zrotation Yrotation Xrotation
                    JOINT RightHandThumb2
                    {
                      OFFSET -4.703594 -3e-06 2e-06
                      CHANNELS 3 Zrotation Yrotation Xrotation
                      JOINT RightHandThumb3
                      {
                        OFFSET -2.794935 -4e-06 -3e-06
                        CHANNELS 3 Zrotation Yrotation Xrotation
                        JOINT RightHandThumbEnd
                        {
                          OFFSET -3.183852 4e-06 1e-06
                          CHANNELS 3 Zrotation Yrotation Xrotation
                        }
                      }
                    }
                  }
                  JOINT RightHandIndex1
                  {
                    OFFSET -3.253496 -2.33755 -0.127667
                    CHANNELS 3 Zrotation Yrotation Xrotation
                    JOINT RightHandIndex2
                    {
                      OFFSET -6.344434 0.0 0.0
                      CHANNELS 3 Zrotation Yrotation Xrotation
                      JOINT RightHandIndex3
                      {
                        OFFSET -3.654871 0.0 -8e-06
                        CHANNELS 3 Zrotation Yrotation Xrotation
                        JOINT RightHandIndex4
                        {
                          OFFSET -2.327586 -1e-06 0.0
                          CHANNELS 3 Zrotation Yrotation Xrotation
                          JOINT RightHandIndexEnd
                          {
                            OFFSET -2.770001 3e-06 8e-06
                            CHANNELS 3 Zrotation Yrotation Xrotation
                          }
                        }
                      }
                    }
                  }
                  JOINT RightHandMiddle1
                  {
                    OFFSET -3.168223 -0.944764 0.411762
                    CHANNELS 3 Zrotation Yrotation Xrotation
                    JOINT RightHandMiddle2
                    {
                      OFFSET -6.266691 -1e-06 -4e-06
                      CHANNELS 3 Zrotation Yrotation Xrotation
                      JOINT RightHandMiddle3
                      {
                        OFFSET -4.348901 0.0 0.0
                        CHANNELS 3 Zrotation Yrotation Xrotation
                        JOINT RightHandMiddle4
                        {
                          OFFSET -3.00024 2e-06 -4e-06
                          CHANNELS 3 Zrotation Yrotation Xrotation
                          JOINT RightHandMiddleEnd
                          {
                            OFFSET -2.321477 -4e-06 -4e-06
                            CHANNELS 3 Zrotation Yrotation Xrotation
                          }
                        }
                      }
                    }
                  }
                  JOINT RightHandRing1
                  {
                    OFFSET -2.885654 0.293261 -0.119232
                    CHANNELS 3 Zrotation Yrotation Xrotation
                    JOINT RightHandRing2
                    {
                      OFFSET -6.032835 -1e-06 -4e-06
                      CHANNELS 3 Zrotation Yrotation Xrotation
                      JOINT RightHandRing3
                      {
                        OFFSET -4.33881 0.0 -4e-06
                        CHANNELS 3 Zrotation Yrotation Xrotation
                        JOINT RightHandRing4
                        {
                          OFFSET -2.654903 -4e-06 -4e-06
                          CHANNELS 3 Zrotation Yrotation Xrotation
                          JOINT RightHandRingEnd
                          {
                            OFFSET -1.935122 0.0 4e-06
                            CHANNELS 3 Zrotation Yrotation Xrotation
                          }
                        }
                      }
                    }
                  }
                  JOINT RightHandPinky1
                  {
                    OFFSET -2.866241 1.503904 -0.60527
                    CHANNELS 3 Zrotation Yrotation Xrotation
                    JOINT RightHandPinky2
                    {
                      OFFSET -5.553177 -2e-06 0.0
                      CHANNELS 3 Zrotation Yrotation Xrotation
                      JOINT RightHandPinky3
                      {
                        OFFSET -3.062664 -1e-06 -4e-06
                        CHANNELS 3 Zrotation Yrotation Xrotation
                        JOINT RightHandPinky4
                        {
                          OFFSET -1.546529 2e-06 4e-06
                          CHANNELS 3 Zrotation Yrotation Xrotation
                          JOINT RightHandPinkyEnd
                          {
                            OFFSET -1.952341 0.0 -4e-06
                            CHANNELS 3 Zrotation Yrotation Xrotation
                          }
                        }
                      }
                    }
                  }
                }
              }
            }
          }
        }
      }
    }
    JOINT LeftLeg
    {
      OFFSET -8.443107 2.567604 10.043214
      CHANNELS 3 Zrotation Yrotation Xrotation
      JOINT LeftShin
      {
        OFFSET 43.229198 1e-06 -1e-06
        CHANNELS 3 Zrotation Yrotation Xrotation
        JOINT LeftFoot
        {
          OFFSET 42.298611 1e-06 1e-06
          CHANNELS 3 Zrotation Yrotation Xrotation
          JOINT LeftToeBase
          {
            OFFSET 14.165858 1e-06 0.0
            CHANNELS 3 Zrotation Yrotation Xrotation
            JOINT LeftToeEnd
            {
              OFFSET 6.7141 -0.234461 0.0
              CHANNELS 3 Zrotation Yrotation Xrotation
            }
          }
        }
      }
    }
    JOINT RightLeg
    {
      OFFSET -8.303923 2.592729 -10.047278
      CHANNELS 3 Zrotation Yrotation Xrotation
      JOINT RightShin
      {
        OFFSET -43.369682 0.0 1e-06
        CHANNELS 3 Zrotation Yrotation Xrotation
        JOINT RightFoot
        {
          OFFSET -42.260784 4e-06 2e-06
          CHANNELS 3 Zrotation Yrotation Xrotation
          JOINT RightToeBase
          {
            OFFSET -14.222245 -2e-06 -1e-06
            CHANNELS 3 Zrotation Yrotation Xrotation
            JOINT RightToeEnd
            {
              OFFSET -6.660062 0.232574 -2e-06
              CHANNELS 3 Zrotation Yrotation Xrotation
            }
          }
        }
      }
    }
  }
}
MOTION
Frames: 5
Frame Time: 0.03333333333333333
0.0 0.0 0.0 0.0 -0.0 0.0 -0.469283 99.630699 6.041185 90.690712 1.819482 90.042847 -1.753367 0.537623 -0.088683 -11.68433 -0.484021 0.337845 16.939512 -0.209579 -1.663258 19.523098 2.716691 2.818696 -2.440671 -0.530334 0.751152 -29.635826 0.481719 -0.298962 6e-06 -0.0 0.0 0.049333 0.007515 0.030139 0.06307 0.04082 0.018304 0.03633 -0.023783 0.047651 -122.000824 -75.030998 139.638733 37.926086 -48.582031 14.414804 36.326332 0.193377 -0.131269 5.02915 -8.675855 16.313046 17.636623 -26.322723 52.411186 -19.466663 -14.395596 29.410385 -0.0 -8.774821 -0.0 15.992202 -18.25922 6.273445 -0.609776 -1.795652 -3.889329 -4.807088 -11.046811 -2.937847 3e-06 -20.976015 -0.0 -5.019969 -25.033556 -4.031881 3e-06 -1e-06 1e-06 -10.634532 -5.68697 -3.565587 10.573272 -17.922951 -3.113902 3e-06 -13.821209 -0.0 -0.501775 -31.181505 -4.027018 -11.668949 -59.757061 7.486459 -13.982712 -7.150198 -2.875041 13.77273 -8.401492 -3.218243 0.347733 -34.211552 0.771652 -0.963028 -17.73337 2.621018 -1e-06 1e-06 0.0 -17.346415 -20.095213 -4.201782 21.757555 -1.638374 3.866426 -0.0 -6.338823 1e-06 -1.69759 -22.591743 -6.194005 3e-06 -3e-06 -1e-06 30.471844 -72.831001 170.544968 38.091213 -41.877995 12.961478 38.742748 -0.154578 0.250002 0.421781 -7.392719 13.192559 22.182119 -20.375898 49.933327 -16.701815 -16.743528 28.476532 -2e-06 -12.690605 0.0 16.182652 -17.935289 2.521191 -0.105919 -1.513857 -4.275883 -5.039041 -5.612873 -2.953557 6e-06 -11.020525 -3e-06 -6.1113 -15.895334 -3.84047 1e-06 -0.0 -0.0 -10.283373 -5.680291 -4.34184 11.028296 -11.302407 -2.372635 -1.384268 -14.238585 -6.320122 -0.625438 -26.924194 -3.827603 -4.597879 -49.785675 -3.997163 -13.708527 -7.363479 -3.720942 18.141151 -14.05274 -3.242675 5e-06 -18.787271 -1e-06 -0.429709 -8.456046 2.555503 2e-06 -1e-06 -2e-06 -15.923539 -20.094486 -5.473584 30.419218 -7.190826 1.735929 1e-06 -8.162928 -1e-06 -1.861902 -22.861479 -6.167944 -1e-06 -3e-06 -2e-06 177.740448 -4.403571 -12.450943 16.307665 0.002502 0.073456 -80.501137 2.536674 -4.30206 -6.469811 1.518359 2.108449 -0.999999 -0.0 0.0 -4.208905 -5.641935 -10.750269 19.007496 0.001944 -0.026399 -81.188965 0.208366 -5.77738 -6.470462 0.77341 1.664366 -1.000002 -0.0 -0.0 
0.0 0.0 0.0 0.0 -0.0 0.0 -0.507699 99.636009 6.098974 90.682396 1.801817 90.067398 -1.783592 0.520671 -0.102236 -11.679235 -0.471213 0.392063 16.907396 -0.198086 -1.712006 19.479517 2.762586 2.813572 -2.423926 -0.548356 0.758578 -29.614986 0.480855 -0.323816 6e-06 -0.0 0.0 0.046736 0.005592 0.047674 0.066504 0.039832 0.03666 0.044005 -0.026858 0.063657 -122.0158 -75.061317 139.639954 37.914501 -48.584217 14.406131 36.293751 0.157247 -0.1926 5.053196 -8.775206 16.165359 17.636625 -26.322729 52.411194 -19.466661 -14.3956 29.410385 -0.0 -8.774821 -1e-06 15.96708 -18.209358 6.225557 -0.609776 -1.795652 -3.889324 -4.807088 -11.04681 -2.937848 3e-06 -20.976015 1e-06 -5.01997 -25.033556 -4.03188 5e-06 -3e-06 1e-06 -10.634533 -5.686969 -3.565585 10.573275 -17.922947 -3.113903 4e-06 -13.821206 1e-06 -0.501777 -31.181498 -4.027014 -11.56171 -59.651711 7.453059 -13.982713 -7.150197 -2.875041 13.772728 -8.401489 -3.218242 0.347735 -34.211544 0.771655 -0.963029 -17.73337 2.621019 -1e-06 1e-06 0.0 -17.346416 -20.095213 -4.201782 21.757557 -1.638376 3.866426 2e-06 -6.338824 2e-06 -1.697592 -22.59174 -6.194005 0.0 -5e-06 -2e-06 30.492104 -72.785439 170.585098 37.988091 -41.859673 12.849296 38.497749 -0.190871 0.221475 0.552827 -7.559979 12.989265 22.182116 -20.3759 49.933315 -16.701815 -16.743534 28.476534 -4e-06 -12.690603 1e-06 16.140337 -17.974945 2.541718 -0.105918 -1.513855 -4.275883 -5.03904 -5.612871 -2.953556 7e-06 -11.020523 -1e-06 -6.111298 -15.895328 -3.84047 1e-06 -0.0 -3e-06 -10.283369 -5.680285 -4.341836 11.028295 -11.302405 -2.372634 -1.384268 -14.23858 -6.320118 -0.625435 -26.924191 -3.827598 -4.638813 -49.890091 -3.951851 -13.708523 -7.363472 -3.720938 18.141146 -14.052739 -3.242672 4e-06 -18.787268 0.0 -0.42971 -8.456043 2.555505 1e-06 -1e-06 -0.0 -15.923534 -20.094481 -5.47358 30.419214 -7.190826 1.735925 -1e-06 -8.162925 -0.0 -1.861903 -22.861467 -6.167938 -2e-06 -3e-06 -2e-06 177.794159 -4.430722 -12.42738 16.227629 0.00753 0.114059 -80.506935 2.55303 -4.427089 -6.504322 1.541793 2.117284 -1.0 -0.0 0.0 -4.15554 -5.600656 -10.772607 18.94879 -0.001318 -0.034265 -81.202934 0.18693 -5.730371 -6.505571 0.754 1.662027 -1.000002 -1e-06 -0.0 
0.0 0.0 0.0 0.0 -0.0 0.0 -0.53141 99.628304 6.136041 90.698105 1.783867 90.077873 -1.818988 0.490903 -0.111362 -11.679589 -0.471475 0.415307 16.921431 -0.200496 -1.725659 19.430531 2.76326 2.823693 -2.453057 -0.551063 0.719437 -29.539249 0.45511 -0.330005 6e-06 -0.0 -0.0 0.040758 0.003487 0.04677 0.054158 0.036763 0.037684 0.037844 -0.028461 0.06008 -122.072014 -75.075447 139.693481 37.874474 -48.534893 14.446656 36.321175 0.148873 -0.221949 5.047363 -8.906287 15.9235 17.636631 -26.322733 52.411201 -19.466663 -14.395597 29.410395 -1e-06 -8.774822 -2e-06 15.973588 -18.193588 6.199257 -0.609777 -1.795654 -3.889328 -4.807088 -11.046812 -2.93785 4e-06 -20.976019 0.0 -5.019969 -25.03356 -4.031882 4e-06 -0.0 1e-06 -10.634537 -5.686973 -3.565589 10.573277 -17.922951 -3.113901 3e-06 -13.82121 1e-06 -0.501779 -31.181511 -4.027017 -11.573503 -59.568459 7.444714 -13.982715 -7.150197 -2.875043 13.772732 -8.401494 -3.21824 0.347734 -34.211555 0.771654 -0.963029 -17.733374 2.621021 -1e-06 1e-06 1e-06 -17.346422 -20.095219 -4.201784 21.757561 -1.638376 3.866429 1e-06 -6.338824 1e-06 -1.697589 -22.591747 -6.194009 1e-06 -5e-06 -2e-06 30.386799 -72.735146 170.713989 37.803947 -41.82098 12.776098 38.30872 -0.218141 0.193294 0.589908 -7.688092 12.856825 22.182123 -20.375895 49.933327 -16.701822 -16.743532 28.47654 -2e-06 -12.690605 -1e-06 16.118151 -17.964624 2.554813 -0.105921 -1.513858 -4.275881 -5.039042 -5.612875 -2.953557 5e-06 -11.020528 -4e-06 -6.111301 -15.895338 -3.840473 1e-06 -2e-06 -2e-06 -10.283374 -5.680292 -4.341841 11.028296 -11.302409 -2.372632 -1.38427 -14.238589 -6.320124 -0.625437 -26.924204 -3.827605 -4.660461 -49.940327 -3.933321 -13.708529 -7.363482 -3.720941 18.141153 -14.052743 -3.242676 6e-06 -18.787273 -5e-06 -0.42971 -8.456046 2.555502 1e-06 -1e-06 0.0 -15.923543 -20.094496 -5.473585 30.419218 -7.190828 1.735928 1e-06 -8.162929 -4e-06 -1.861901 -22.861481 -6.167949 1e-06 -4e-06 -1e-06 177.786835 -4.432609 -12.425161 16.250626 0.00742 0.140218 -80.556892 2.548493 -4.475683 -6.462574 1.54751 2.123195 -0.999998 1e-06 0.0 -4.18697 -5.616696 -10.801202 19.032373 0.003028 -0.042627 -81.270302 0.180133 -5.713627 -6.475045 0.742394 1.659798 -1.000002 0.0 -0.0 
0.0 0.0 0.0 0.0 -0.0 0.0 -0.543591 99.615738 6.143986 90.716408 1.76876 90.08651 -1.834746 0.455108 -0.114247 -11.686859 -0.471433 0.421859 16.940582 -0.215372 -1.713961 19.401325 2.71047 2.826826 -2.483232 -0.543198 0.671083 -29.490934 0.42437 -0.342135 6e-06 0.0 -0.0 0.035783 0.002626 0.040371 0.042672 0.035009 0.033514 0.029075 -0.028748 0.050878 -122.207848 -75.060692 139.839798 37.855564 -48.450466 14.495728 36.348896 0.151915 -0.224466 5.03135 -8.965821 15.761475 17.636625 -26.322718 52.411171 -19.46666 -14.395594 29.410378 -1e-06 -8.774819 -1e-06 15.963997 -18.178923 6.192218 -0.609776 -1.795654 -3.889326 -4.807088 -11.046809 -2.937849 6e-06 -20.976015 -0.0 -5.019966 -25.033554 -4.031881 6e-06 1e-06 0.0 -10.634531 -5.686969 -3.565585 10.573274 -17.922949 -3.113902 4e-06 -13.821206 -1e-06 -0.501777 -31.181505 -4.027014 -11.591774 -59.512142 7.427378 -13.982711 -7.150196 -2.875041 13.772728 -8.401493 -3.218241 0.347736 -34.211544 0.771652 -0.963027 -17.733366 2.62102 -0.0 1e-06 0.0 -17.346413 -20.095211 -4.201779 21.757555 -1.638375 3.866426 1e-06 -6.338823 0.0 -1.697589 -22.591742 -6.194005 4e-06 -4e-06 -4e-06 30.291531 -72.689247 170.829651 37.613018 -41.789265 12.826153 38.165047 -0.171014 0.197356 0.58768 -7.778702 12.77984 22.182108 -20.375891 49.933308 -16.701811 -16.743526 28.476528 -2e-06 -12.690599 1e-06 16.09816 -17.931332 2.577948 -0.10592 -1.513855 -4.275882 -5.039042 -5.612872 -2.953555 4e-06 -11.020524 -4e-06 -6.111298 -15.895334 -3.840469 1e-06 -1e-06 -1e-06 -10.283369 -5.680288 -4.341837 11.028292 -11.302404 -2.372632 -1.384268 -14.238581 -6.320122 -0.625438 -26.924191 -3.827601 -4.686851 -49.931499 -3.899879 -13.708523 -7.363475 -3.720937 18.141146 -14.052738 -3.242673 5e-06 -18.78727 -4e-06 -0.429711 -8.456043 2.555502 1e-06 -2e-06 0.0 -15.923532 -20.094482 -5.473581 30.419205 -7.190823 1.735925 -0.0 -8.162925 -2e-06 -1.861902 -22.861467 -6.167942 -1e-06 -3e-06 -3e-06 177.732956 -4.433873 -12.452088 16.338034 0.004872 0.150021 -80.606621 2.550962 -4.482234 -6.432015 1.54309 2.123019 -0.999999 -1e-06 -0.0 -4.259552 -5.646825 -10.819148 19.165262 0.006631 -0.054579 -81.342606 0.181536 -5.721506 -6.444024 0.733089 1.657576 -1.000002 0.0 -0.0 
0.0 0.0 0.0 0.0 -0.0 0.0 -0.547838 99.604622 6.14536 90.723686 1.745872 90.115517 -1.846072 0.424073 -0.105886 -11.693699 -0.470447 0.413882 16.956711 -0.243401 -1.704925 19.372231 2.64518 2.830577 -2.501372 -0.528418 0.635122 -29.484627 0.387136 -0.365664 6e-06 -0.0 0.0 0.035194 0.004431 0.042109 0.039481 0.037264 0.037054 0.025425 -0.027475 0.05042 -122.32119 -75.028366 139.993408 37.906624 -48.343872 14.490185 36.378925 0.163143 -0.20112 5.030929 -8.993921 15.684999 17.636629 -26.322727 52.411186 -19.466663 -14.395597 29.410389 -0.0 -8.774822 -1e-06 15.93032 -18.168512 6.210652 -0.609776 -1.795653 -3.889329 -4.807089 -11.046813 -2.937849 5e-06 -20.976019 -0.0 -5.019973 -25.033562 -4.031882 7e-06 1e-06 -1e-06 -10.634534 -5.686971 -3.565587 10.573277 -17.922953 -3.113904 3e-06 -13.821209 -1e-06 -0.501777 -31.181507 -4.027017 -11.603598 -59.468403 7.434293 -13.982714 -7.150199 -2.875041 13.772731 -8.401492 -3.218244 0.347736 -34.211555 0.771651 -0.963028 -17.73337 2.621019 1e-06 2e-06 0.0 -17.34642 -20.095219 -4.20178 21.757563 -1.638375 3.866426 0.0 -6.338824 2e-06 -1.697591 -22.591747 -6.194007 1e-06 -5e-06 -2e-06 30.212376 -72.651649 170.92247 37.430374 -41.773281 12.945392 38.064236 -0.098881 0.214407 0.57533 -7.839742 12.704563 22.182112 -20.375898 49.933327 -16.701811 -16.74353 28.476532 -3e-06 -12.690602 -1e-06 16.086399 -17.906511 2.601113 -0.105919 -1.513856 -4.275882 -5.039041 -5.61287 -2.953555 6e-06 -11.020523 -4e-06 -6.111295 -15.89533 -3.840471 -0.0 -1e-06 0.0 -10.283371 -5.680287 -4.341837 11.028296 -11.302404 -2.372635 -1.384267 -14.238579 -6.320121 -0.625439 -26.924183 -3.827595 -4.685452 -49.907948 -3.885628 -13.708527 -7.363476 -3.720938 18.141151 -14.052739 -3.242676 5e-06 -18.787268 -1e-06 -0.429713 -8.456043 2.555504 1e-06 -1e-06 -1e-06 -15.923532 -20.094482 -5.473586 30.419214 -7.190826 1.735926 0.0 -8.162925 -0.0 -1.861899 -22.861467 -6.167942 -0.0 -2e-06 -2e-06 177.653107 -4.445139 -12.487061 16.445318 -0.000918 0.151 -80.645065 2.580202 -4.452942 -6.400224 1.534672 2.11943 -0.999999 -1e-06 0.0 -4.328456 -5.665807 -10.841988 19.271271 0.007776 -0.060158 -81.398636 0.180284 -5.746148 -6.404484 0.728467 1.657309 -1.000002 -0.0 -0.0 
